Coordinates
version=1
nRows=10
nColumns=40
inDegrees=yes

Units are S.I. units (second, meters, Newtons, ...)
Angles are in degrees.

endheader
time	pelvis_tilt	pelvis_list	pelvis_rotation	pelvis_tx	pelvis_ty	pelvis_tz	hip_flexion_r	hip_adduction_r	hip_rotation_r	knee_angle_r	knee_angle_r_beta	ankle_angle_r	subtalar_angle_r	mtp_angle_r	hip_flexion_l	hip_adduction_l	hip_rotation_l	knee_angle_l	knee_angle_l_beta	ankle_angle_l	subtalar_angle_l	mtp_angle_l	lumbar_extension	lumbar_bending	lumbar_rotation	arm_flex_r	arm_add_r	arm_rot_r	elbow_flex_r	pro_sup_r	wrist_flex_r	wrist_dev_r	arm_flex_l	arm_add_l	arm_rot_l	elbow_flex_l	pro_sup_l	wrist_flex_l	wrist_dev_l
      1.70000000	     -5.00262068	     -3.61634401	     -2.18718962	      0.78888263	      0.92178802	      0.47760100	     22.75959293	      0.69791886	    -10.16311038	     21.94892060	     21.94892060	      6.99123476	     -1.91227629	     -4.31139487	      5.51211439	     -6.61149875	     -6.01184853	     31.02785067	     31.02785067	     18.46734336	    -10.16909728	     -3.85619963	     -9.43140994	      6.08741903	     -0.70058909	     -7.88287062	    -13.32222373	     -8.27077577	     25.85225999	     45.97471016	      0.00000000	      0.00000000	      8.24369483	    -12.99525256	    -13.79770745	     82.65144314	     46.54373551	      0.00000000	      0.00000000
      1.71314286	     -5.00403539	     -3.81264451	     -1.93746646	      0.78832777	      0.92229099	      0.47950548	     22.18478965	      0.96859789	    -10.50038706	     21.71839855	     21.71839855	      7.28395222	     -1.76150752	     -4.55541572	      7.14317158	     -7.13165182	     -5.16565751	     34.57491462	     34.57491462	     17.11510876	    -11.67284399	     -4.70633979	     -9.34336146	      6.43543551	     -0.58797622	     -6.23247801	    -13.25768808	     -8.03404533	     26.33291018	     45.95650129	      0.00000000	      0.00000000	      7.63390863	    -12.78626954	    -12.99122036	     81.43610258	     46.48707446	      0.00000000	      0.00000000
      1.72628571	     -4.86240192	     -3.98159821	     -1.69308338	      0.78766940	      0.92290515	      0.48143201	     21.49293092	      1.21867555	    -10.78701605	     21.54350106	     21.54350106	      7.59896499	     -1.63035805	     -4.76367239	      8.68370262	     -7.63015061	     -4.42388351	     38.16060627	     38.16060627	     15.64635735	    -12.91324774	     -5.32015291	     -9.44280211	      6.68731629	     -0.32247668	     -4.56949317	    -13.21654451	     -7.83797196	     26.90909986	     45.93550073	      0.00000000	      0.00000000	      7.08653694	    -12.47710272	    -12.32565081	     80.40465851	     46.43681429	      0.00000000	      0.00000000
      1.73942857	     -4.86240349	     -4.09641877	     -1.40616326	      0.78682835	      0.92318615	      0.48315844	     20.95138982	      1.40476085	    -11.04825110	     21.32559691	     21.32559691	      7.78770636	     -1.59498739	     -5.49342733	     10.42852025	     -7.99757071	     -3.59714687	     41.61162424	     41.61162424	     13.21494545	    -14.77016027	     -7.42981512	     -9.32593927	      7.02936662	      0.21604256	     -3.11460777	    -13.33245459	     -6.50293552	     27.58128358	     45.84793980	      0.00000000	      0.00000000	      7.12120504	    -12.42040163	    -10.53308332	     77.84778835	     46.38405360	      0.00000000	      0.00000000
      1.75257143	     -4.69434988	     -4.28308749	     -1.17152289	      0.78580204	      0.92359151	      0.48507544	     20.31451521	      1.68381523	    -11.29897362	     21.24294289	     21.24294289	      8.07864889	     -1.55920998	     -5.59779881	     12.09283508	     -8.50842963	     -2.97462826	     45.20513927	     45.20513927	     11.72173077	    -15.59524876	     -7.37271871	     -9.53224557	      7.25613469	      0.55460356	     -1.25533855	    -13.31588882	     -6.39884827	     28.42709005	     45.82320206	      0.00000000	      0.00000000	      6.50106971	    -12.00460340	    -10.13875893	     77.13250535	     46.35278030	      0.00000000	      0.00000000
      1.76571429	     -4.72936663	     -4.36464880	     -0.83756207	      0.78452022	      0.92367290	      0.48665479	     19.92103751	      1.83021709	    -11.50446243	     21.16272843	     21.16272843	      8.31586282	     -1.70355836	     -5.80745624	     14.15366824	     -8.73408789	     -2.06800834	     48.88702084	     48.88702084	     11.22169319	    -16.03601617	     -4.45571755	     -9.41881556	      7.43885152	      0.78957722	      0.19737521	    -13.55085941	     -4.82225074	     29.99319616	     45.69047390	      0.00000000	      0.00000000	      6.21606623	    -11.75702470	     -9.39072300	     74.71162517	     46.38610346	      0.00000000	      0.00000000
      1.77885714	     -4.65316762	     -4.46574242	     -0.51622411	      0.78311316	      0.92382491	      0.48825071	     19.46175104	      1.99614463	    -11.70032376	     21.17259546	     21.17259546	      8.63162393	     -1.83372826	     -5.79357537	     16.05304305	     -8.99980159	     -1.33095366	     52.22478275	     52.22478275	     10.89860540	    -16.15666836	     -1.39562126	     -9.51443158	      7.57721526	      0.92653778	      1.99829389	    -13.74413947	     -3.53216405	     31.41761939	     45.59704809	      0.00000000	      0.00000000	      5.62940272	    -11.46521038	     -9.03956885	     73.21572815	     46.45824621	      0.00000000	      0.00000000
      1.79200000	     -4.49630423	     -4.58623456	     -0.19841700	      0.78163468	      0.92407617	      0.48983488	     18.92191593	      2.18647373	    -11.90530970	     21.17652376	     21.17652376	      8.90353473	     -1.92803951	     -5.84463379	     17.68655581	     -9.31952504	     -0.77091782	     54.85177374	     54.85177374	      9.67954251	    -16.62235501	     -0.98079692	     -9.75320084	      7.68903701	      1.27020754	      4.01893214	    -13.75412338	     -3.47528652	     32.30212118	     45.57573893	      0.00000000	      0.00000000	      4.95928058	    -11.07927988	     -8.73490954	     72.38813145	     46.42802622	      0.00000000	      0.00000000
      1.80514286	     -4.51816651	     -4.66321835	      0.22090458	      0.77995869	      0.92410965	      0.49125823	     18.56053558	      2.32644071	    -12.10524219	     21.12428671	     21.12428671	      9.17007585	     -2.21762040	     -5.80708919	     19.55465523	     -9.48173525	     -0.06750761	     57.11953857	     57.11953857	      8.95872198	    -17.00875964	      0.29446207	     -9.72568607	      7.73811631	      1.02341290	      6.15096065	    -13.63176519	     -3.24163869	     33.48291869	     45.53379185	      0.00000000	      0.00000000	      4.14313521	    -11.00644622	     -8.55685390	     70.55529101	     46.39822954	      0.00000000	      0.00000000
      1.81828571	     -4.41106642	     -4.59912358	      0.59279042	      0.77820523	      0.92448185	      0.49243657	     18.09390128	      2.30964988	    -12.22571625	     21.14374529	     21.14374529	      9.56475057	     -2.37249407	     -5.48100336	     21.31738596	     -9.44162863	      0.48406305	     59.15708601	     59.15708601	     10.45569678	    -16.42201583	      6.45293093	     -9.90184170	      7.67738238	      1.32822965	      7.82819381	    -14.11594908	     -0.86705222	     35.52075313	     45.36617698	      0.00000000	      0.00000000	      4.08610673	    -10.42737230	     -8.74429846	     67.77386152	     46.48526729	      0.00000000	      0.00000000
